<svg class="animated" id="freepik_stories-honesty" xmlns="http://www.w3.org/2000/svg" viewBox="0 0 500 500" version="1.1" xmlns:xlink="http://www.w3.org/1999/xlink" xmlns:svgjs="http://svgjs.com/svgjs"><style>svg#freepik_stories-honesty:not(.animated) .animable {opacity: 0;}svg#freepik_stories-honesty.animated #freepik--character-1--inject-26 {animation: 3s Infinite  linear floating;animation-delay: 0s;}svg#freepik_stories-honesty.animated #freepik--character-2--inject-26 {animation: 3s Infinite  linear floating;animation-delay: 0s;}            @keyframes floating {                0% {                    opacity: 1;                    transform: translateY(0px);                }                50% {                    transform: translateY(-10px);                }                100% {                    opacity: 1;                    transform: translateY(0px);                }            }        </style><g id="freepik--background-complete--inject-26" class="animable" style="transform-origin: 254.39px 178.835px;"><rect x="42.21" y="202.14" width="50.94" height="13.47" style="fill: rgb(245, 245, 245); transform-origin: 67.68px 208.875px;" id="elqdqb0yhq3j" class="animable"></rect><path d="M71.6,229.81s0-.09,0-.25,0-.4,0-.69c0-.63,0-1.51,0-2.65,0-2.32,0-5.67-.08-9.89l.15.16-50.93.1.26-.25h0v6.82c0,2.25,0,4.46,0,6.63l-.25-.25,36.3.11,10.71.07,2.9,0h.76l.26,0s-.07,0-.23,0h-.73l-2.84,0L57.14,230l-36.47.11h-.25v-.25q0-3.26,0-6.63v-6.82h0l.26-.26,50.93.1h.16v.15c0,4.26-.06,7.64-.09,10,0,1.11,0,2,0,2.61,0,.27,0,.49,0,.67A.85.85,0,0,1,71.6,229.81Z" style="fill: rgb(224, 224, 224); transform-origin: 46.095px 223.13px;" id="el08ezc84wmi8o" class="animable"></path><rect x="238.9" y="170.63" width="50.94" height="13.47" style="fill: rgb(245, 245, 245); transform-origin: 264.37px 177.365px;" id="el1wwq2idzrcu" class="animable"></rect><path d="M268.3,198.29a2.17,2.17,0,0,1,0-.24c0-.18,0-.41,0-.69,0-.64,0-1.52,0-2.65,0-2.33-.05-5.68-.09-9.89l.16.16-50.93.1c.11-.12-.26.26.26-.26h0v3.42c0,1.15,0,2.28,0,3.41v6.62l-.25-.25,36.29.11,10.72.08,2.9,0,.75,0h.27s-.07,0-.23,0l-.73,0-2.84,0-10.66.07-36.47.12h-.26V184.84h0c.52-.52.14-.15.26-.26l50.93.1h.16v.16c0,4.26-.07,7.63-.09,10,0,1.12,0,2,0,2.62,0,.27,0,.49,0,.66S268.31,198.3,268.3,198.29Z" style="fill: rgb(224, 224, 224); transform-origin: 242.865px 191.477px;" id="eluqgqbh1f2w" class="animable"></path><rect x="53.5" y="33.81" width="121.64" height="126.8" style="fill: rgb(224, 224, 224); transform-origin: 114.32px 97.21px;" id="elwf4kntazly" class="animable"></rect><rect x="45.27" y="33.81" width="121.64" height="126.8" style="fill: rgb(250, 250, 250); transform-origin: 106.09px 97.21px;" id="el3wnetnh5uxr" class="animable"></rect><path d="M167,160.65H45.23V33.77H167ZM45.3,160.58H166.87V33.85H45.3Z" style="fill: rgb(224, 224, 224); transform-origin: 106.115px 97.21px;" id="elu430vbuy02" class="animable"></path><rect x="61.62" y="50.86" width="88.94" height="92.71" style="fill: rgb(255, 255, 255); transform-origin: 106.09px 97.215px;" id="elk9gpcnrw099" class="animable"></rect><path d="M61.62,144.19a15,15,0,0,1-2.2,2.55c-1.42,1.5-3.41,3.52-5.65,5.73S49.48,156.64,48,158a14.19,14.19,0,0,1-2.57,2.14,13.85,13.85,0,0,1,2.18-2.54c1.42-1.5,3.42-3.53,5.67-5.74s4.3-4.18,5.82-5.57A13.35,13.35,0,0,1,61.62,144.19Z" style="fill: rgb(224, 224, 224); transform-origin: 53.525px 152.165px;" id="elydtrwmzg25" class="animable"></path><path d="M150.56,144a14.58,14.58,0,0,1,2.55,2.19c1.5,1.42,3.53,3.42,5.73,5.66s4.17,4.29,5.56,5.81a13.3,13.3,0,0,1,2.14,2.57A15.24,15.24,0,0,1,164,158c-1.5-1.42-3.53-3.42-5.74-5.66s-4.18-4.31-5.57-5.82A13.35,13.35,0,0,1,150.56,144Z" style="fill: rgb(224, 224, 224); transform-origin: 158.55px 152.115px;" id="elx65h8kraou" class="animable"></path><path d="M150.31,51.1a15,15,0,0,1,2.2-2.55c1.42-1.5,3.41-3.53,5.65-5.73s4.3-4.17,5.81-5.56a14.61,14.61,0,0,1,2.57-2.14,13.85,13.85,0,0,1-2.18,2.54c-1.42,1.5-3.42,3.53-5.67,5.74s-4.3,4.18-5.82,5.57A13,13,0,0,1,150.31,51.1Z" style="fill: rgb(224, 224, 224); transform-origin: 158.425px 43.11px;" id="elmi57k75dq8" class="animable"></path><path d="M61.37,51.33a14.58,14.58,0,0,1-2.55-2.19c-1.5-1.42-3.52-3.42-5.73-5.66s-4.17-4.29-5.56-5.81a13.8,13.8,0,0,1-2.14-2.57,14.23,14.23,0,0,1,2.54,2.19c1.5,1.42,3.53,3.42,5.74,5.66s4.18,4.31,5.57,5.82A13.35,13.35,0,0,1,61.37,51.33Z" style="fill: rgb(224, 224, 224); transform-origin: 53.38px 43.215px;" id="ely2itl6e8yg" class="animable"></path><path d="M150.31,143.57s0-.16,0-.45,0-.74,0-1.3c0-1.16,0-2.83,0-5,0-4.39-.06-10.78-.09-18.9-.05-16.23-.11-39.37-.18-67.06l.34.34-88.68,0h0l.39-.39c0,34,0,65.86,0,92.71l-.34-.34,64.22.17,18,.09,4.77,0,1.23,0,.43,0-.39,0-1.19,0-4.71,0-18,.08-64.43.18h-.34v-.34c0-26.85,0-58.68-.06-92.71v-.4h.41l88.68,0h.35v.35c-.07,27.79-.13,51-.18,67.28,0,8.08-.07,14.45-.09,18.82,0,2.14,0,3.79,0,4.94,0,.54,0,.95,0,1.26A1.69,1.69,0,0,1,150.31,143.57Z" style="fill: rgb(224, 224, 224); transform-origin: 106px 96.975px;" id="el6vdx37hxrjx" class="animable"></path><rect x="91.25" y="82.37" width="29.68" height="29.68" style="fill: rgb(235, 235, 235); transform-origin: 106.09px 97.21px;" id="elvzixn7j3s9h" class="animable"></rect><rect x="327.89" y="35.54" width="139.83" height="202.68" style="fill: rgb(224, 224, 224); transform-origin: 397.805px 136.88px;" id="elny5zjqhtwvb" class="animable"></rect><rect x="320.89" y="35.54" width="139.83" height="202.68" style="fill: rgb(245, 245, 245); transform-origin: 390.805px 136.88px;" id="el877meqrx383" class="animable"></rect><rect x="338.26" y="57.5" width="105.08" height="158.77" style="fill: rgb(255, 255, 255); transform-origin: 390.8px 136.885px;" id="el98n7llp6yd" class="animable"></rect><path d="M443.34,216.27s0-.27,0-.78,0-1.27,0-2.25c0-2,0-4.91,0-8.71,0-7.61-.06-18.7-.1-32.7,0-28-.1-67.65-.17-114.33l.35.34-105.07,0h0l.38-.38c0,59.89-.06,115.12-.08,158.77l-.3-.3,76.49.16,21.13.07,5.54,0,1.92,0-1.85,0-5.49,0-21.07.07-76.67.16H338v-.3c0-43.65,0-98.88-.07-158.77v-.38h.39l105.07,0h.35v.35c-.07,46.78-.13,86.5-.17,114.56,0,14-.07,25-.1,32.62,0,3.76,0,6.66,0,8.64,0,1,0,1.7,0,2.21S443.34,216.27,443.34,216.27Z" style="fill: rgb(224, 224, 224); transform-origin: 390.835px 136.665px;" id="el7o7xf3l98r8" class="animable"></path><path d="M461.11,35.54a24.18,24.18,0,0,1-2.5,3.63c-1.62,2.17-3.93,5.12-6.56,8.32s-5.09,6-6.91,8a25,25,0,0,1-3.07,3.14,26.22,26.22,0,0,1,2.66-3.49L451.47,47l6.72-8.17A26.32,26.32,0,0,1,461.11,35.54Z" style="fill: rgb(224, 224, 224); transform-origin: 451.59px 47.085px;" id="elroz6nf6kz6" class="animable"></path><path d="M443.88,215.76a130.15,130.15,0,0,0,18.33,22.92" style="fill: rgb(255, 255, 255); transform-origin: 453.045px 227.22px;" id="el4tjxg8a1ogc" class="animable"></path><path d="M462.21,238.68a20.53,20.53,0,0,1-3.2-2.91,102,102,0,0,1-13-16.26,20,20,0,0,1-2.13-3.75,29.77,29.77,0,0,1,2.57,3.45c1.55,2.17,3.71,5.13,6.24,8.29s4.94,5.93,6.71,7.9A30.52,30.52,0,0,1,462.21,238.68Z" style="fill: rgb(224, 224, 224); transform-origin: 453.045px 227.22px;" id="el4vwgh1qqlfd" class="animable"></path><path d="M320.87,238.06q9.15-11.3,18.31-22.6" style="fill: rgb(255, 255, 255); transform-origin: 330.025px 226.76px;" id="ele2dw2sdkn5r" class="animable"></path><path d="M339.18,215.46c.16.13-3.8,5.3-8.86,11.54s-9.29,11.19-9.45,11.06,3.8-5.3,8.86-11.54S339,215.33,339.18,215.46Z" style="fill: rgb(224, 224, 224); transform-origin: 330.025px 226.76px;" id="elfw9jjfcqto" class="animable"></path><path d="M320.89,35.54c.16-.13,4.14,4.63,8.89,10.63s8.45,11,8.29,11.1-4.15-4.63-8.89-10.63S320.72,35.67,320.89,35.54Z" style="fill: rgb(224, 224, 224); transform-origin: 329.48px 46.4045px;" id="el105x2rfzle9l" class="animable"></path><rect x="375.42" y="89.73" width="35.19" height="99.9" style="fill: rgb(224, 224, 224); transform-origin: 393.015px 139.68px;" id="elfva0uxq8gld" class="animable"></rect><path d="M257.28,93.65a1.41,1.41,0,0,1,0-.25c0-.18,0-.4,0-.69,0-.63,0-1.51,0-2.65,0-2.32,0-5.67-.09-9.89l.16.16-50.94.1.26-.25h0V93.65l-.26-.25,36.3.11,10.71.07,2.9,0H257l.27,0-.24,0h-.73l-2.84,0-10.65.07-36.48.11h-.25v-.25q0-3.25,0-6.63V80.2h0l.26-.26,50.94.1h.16v.15c0,4.26-.07,7.64-.09,10,0,1.11,0,2,0,2.61,0,.27,0,.49,0,.67A1.66,1.66,0,0,1,257.28,93.65Z" style="fill: rgb(224, 224, 224); transform-origin: 231.76px 86.85px;" id="elxg0b1xucquc" class="animable"></path><path d="M264.18,80.17s0-.09,0-.25,0-.43,0-.72c0-.66,0-1.56,0-2.7,0-2.36-.06-5.7-.1-9.8l.18.19-30.6.07.26-.26h0v6.93c0,2.25,0,4.44,0,6.53l-.25-.24,21.89.11,6.38.07,1.72,0,.61,0a4.23,4.23,0,0,1-.55,0l-1.67,0-6.32.06-22.06.12h-.25v-.25c0-2.09,0-4.28,0-6.53V66.71h0l.26-.26,30.6.07h.19v.19c0,4.15-.08,7.53-.1,9.92,0,1.12,0,2,0,2.66A5.11,5.11,0,0,1,264.18,80.17Z" style="fill: rgb(224, 224, 224); transform-origin: 248.945px 73.365px;" id="elvoda08kpezc" class="animable"></path><path d="M481.19,323.82s0-.09,0-.25,0-.4,0-.69c0-.63,0-1.51,0-2.65,0-2.32-.05-5.67-.09-9.89l.16.16-50.93.1.26-.26h0v13.45l-.25-.25,36.29.11,10.72.07,2.89,0h.76l.27,0s-.07,0-.23,0h-.73l-2.84,0-10.66.07-36.47.11H430v-13.7h0l.26-.25,50.93.1h.16v.15c0,4.26-.07,7.64-.09,10,0,1.11,0,2,0,2.61v.67A.85.85,0,0,1,481.19,323.82Z" style="fill: rgb(224, 224, 224); transform-origin: 455.675px 316.925px;" id="el1tqw3rizoav" class="animable"></path><path d="M488.1,310.34a.72.72,0,0,1,0-.25c0-.2,0-.43,0-.72,0-.66,0-1.56-.05-2.7,0-2.36-.06-5.7-.1-9.8l.19.19-30.6.07c-.24.23.31-.32.25-.26h0v6.93c0,2.25,0,4.44,0,6.53l-.25-.24,21.9.11,6.37.07,1.72,0,.62,0a4.31,4.31,0,0,1-.56,0l-1.67,0-6.32.06-22.06.12h-.24v-.25c0-2.09,0-4.28,0-6.53,0-1.13,0-2.27,0-3.43v-3.5h0c-.05.06.5-.49.27-.26l30.6.07h.19v.19c0,4.15-.07,7.53-.1,9.92,0,1.12,0,2,0,2.66S488.11,310.36,488.1,310.34Z" style="fill: rgb(224, 224, 224); transform-origin: 472.828px 303.437px;" id="el407fdnmb3hd" class="animable"></path></g><g id="freepik--Table--inject-26" class="animable" style="transform-origin: 249.83px 474.65px;"><path d="M465.83,474.65c0,.15-96.73.26-216,.26s-216-.11-216-.26,96.71-.26,216.05-.26S465.83,474.51,465.83,474.65Z" style="fill: rgb(38, 50, 56); transform-origin: 249.83px 474.65px;" id="el4s153okytvr" class="animable"></path></g><g id="freepik--character-1--inject-26" class="animable" style="transform-origin: 145.331px 280.95px;"><path d="M170.11,244.12,171.28,148c1.07-23.91-11.95-44.46-35.89-44.87l-2.21.09a42.79,42.79,0,0,0-41,41.07C91.37,165,90.74,187.9,91.33,199c1.23,22.93,24.33,25.55,24.33,25.55s.14,14,.13,20.7l1.28,15.84,12.21-4.69Z" style="fill: rgb(174, 116, 97); transform-origin: 131.22px 182.11px;" id="elae1rndaevj" class="animable"></path><path d="M115.78,224.66s14.5.26,29.52-10.06c0,0-6.48,17.55-29.46,16.43Z" style="fill: rgb(111, 68, 57); transform-origin: 130.54px 222.841px;" id="elk8a44oije5e" class="animable"></path><path d="M102.39,163.26a3.28,3.28,0,0,0,3.3,3.17,3.13,3.13,0,0,0,3.25-3.09,3.28,3.28,0,0,0-3.29-3.18A3.15,3.15,0,0,0,102.39,163.26Z" style="fill: rgb(38, 50, 56); transform-origin: 105.665px 163.295px;" id="elk5py9icerao" class="animable"></path><path d="M97.48,153.39c.42.41,2.83-1.53,6.36-1.66s6.18,1.52,6.55,1.07c.18-.2-.27-1-1.43-1.73a9,9,0,0,0-5.27-1.38,8.54,8.54,0,0,0-5,1.86C97.61,152.42,97.27,153.21,97.48,153.39Z" style="fill: rgb(38, 50, 56); transform-origin: 103.925px 151.562px;" id="elbuez6541sut" class="animable"></path><path d="M133.45,162.62a3.29,3.29,0,0,0,3.3,3.18,3.14,3.14,0,0,0,3.26-3.09,3.28,3.28,0,0,0-3.3-3.18A3.14,3.14,0,0,0,133.45,162.62Z" style="fill: rgb(38, 50, 56); transform-origin: 136.73px 162.665px;" id="el6bk5mgxpqwg" class="animable"></path><path d="M132.08,152.78c.43.41,2.84-1.53,6.36-1.66s6.18,1.52,6.55,1.07c.18-.2-.26-.95-1.43-1.73a9,9,0,0,0-5.26-1.38,8.57,8.57,0,0,0-5,1.86C132.21,151.81,131.87,152.6,132.08,152.78Z" style="fill: rgb(38, 50, 56); transform-origin: 138.525px 150.953px;" id="elp6lmyp1mwbo" class="animable"></path><path d="M120.55,180.4c0-.2-2.2-.49-5.77-.79-.91-.06-1.76-.2-1.94-.81a4.63,4.63,0,0,1,.49-2.7q1.14-3.32,2.38-7c3.29-9.92,5.64-18.06,5.24-18.19s-3.4,7.81-6.69,17.72c-.79,2.45-1.55,4.78-2.27,7a5.23,5.23,0,0,0-.32,3.55,2.29,2.29,0,0,0,1.54,1.26,6.26,6.26,0,0,0,1.53.15C118.33,180.68,120.54,180.6,120.55,180.4Z" style="fill: rgb(38, 50, 56); transform-origin: 116.246px 165.768px;" id="el91s2djfoym5" class="animable"></path><path d="M146.39,140c-.32-1-3.85-.63-8-1.27s-7.43-1.88-8-1c-.26.4.29,1.33,1.61,2.3a14,14,0,0,0,12.17,1.76C145.73,141.23,146.53,140.5,146.39,140Z" style="fill: rgb(38, 50, 56); transform-origin: 138.366px 139.943px;" id="elgw74q98p698" class="animable"></path><path d="M109.93,137.2c-1-.5-3.37,1.28-6.6,2.51s-6.17,1.71-6.52,2.73c-.13.48.58,1.08,2,1.34a11.76,11.76,0,0,0,10.57-4.22C110.28,138.37,110.37,137.45,109.93,137.2Z" style="fill: rgb(38, 50, 56); transform-origin: 103.491px 140.493px;" id="elqd9ra2akrci" class="animable"></path><path d="M170.11,164.24c.38-.18,15.57-5.31,15.72,10.4s-15.66,12.61-15.69,12.16S170.11,164.24,170.11,164.24Z" style="fill: rgb(174, 116, 97); transform-origin: 177.971px 175.321px;" id="el11zmombb2dk" class="animable"></path><path d="M174.88,180.81c.07-.05.28.19.74.39a2.73,2.73,0,0,0,2,0c1.65-.63,3-3.28,3.08-6.11a9.08,9.08,0,0,0-.81-3.91,3.17,3.17,0,0,0-2.07-2.08,1.39,1.39,0,0,0-1.61.77c-.21.44-.11.75-.19.78s-.34-.26-.22-.91a1.73,1.73,0,0,1,.61-1,2.12,2.12,0,0,1,1.51-.42,3.87,3.87,0,0,1,2.88,2.41,9.26,9.26,0,0,1,1,4.37c-.07,3.17-1.66,6.15-3.93,6.82a2.9,2.9,0,0,1-2.5-.39C174.92,181.19,174.83,180.84,174.88,180.81Z" style="fill: rgb(111, 68, 57); transform-origin: 178.335px 175.177px;" id="el0fk2w24ipt3" class="animable"></path><path d="M60.47,122.79a3.76,3.76,0,0,1,1.73-2.19c1.79-1.08,3.86-1,5.86-1a33.22,33.22,0,0,0,14.34-3.77,16.45,16.45,0,0,1-4.26-2.92c-2.57-2.51-4.08-6.37-3-9.77a2.19,2.19,0,0,1,1.21-1.52c1-.33,1.92.67,2.64,1.45,2.37,2.59,4.55,3.69,8,3.3a14.09,14.09,0,0,0,6-1.84c.06-.07.12-.15.19-.22.81-.85,1.6-1.67,2.37-2.45h0c5.84-5.92,10.87-10,16.08-12.21,7.64-3.17,20.45-4.57,28.47-2.56s15.28,8.41,16.48,16.59c4.44-3.84,11.18-3.89,16.66-1.75l.14-.07c6.11,2.1,9.64,8.49,11.5,14.67.1.34.19.68.29,1a24.11,24.11,0,0,0,8.28,7.91c.59.33,1.27.74,1.35,1.42s-.49,1.23-1,1.63a12.09,12.09,0,0,1-4.9,2.1,26.07,26.07,0,0,0,2.07,4.25c.7,1.16,1.53,2.54.94,3.76a2.56,2.56,0,0,1-2.67,1.2,7.49,7.49,0,0,1-2.85-1.25c.7,1.62,1.4,3.23,2.09,4.85a14.28,14.28,0,0,1-6.62-.37c-1.22,5.82-2.07,16.57-3.52,20.52-4.17.12-5.19-.32-7.29.4-2.7.94-1.61,5.74-5.17,4.41-1.81-.67-4.65-7.47-5.28-9.3a89.75,89.75,0,0,1-4.31-37.93,29,29,0,0,0-9-6.32l.28.24c-6.45-2.16-13.74-4.27-19.8-1.18-4.7,2.39-7.43,7.33-10.92,11.28-6.61,7.49-14.15,11.54-24.13,12.08-.82,6.95-1,18.29-1.22,24.77L85.86,149.1v.05c-.45-.75-.83-1.51-1.2-2.28l-.12-.23v0c-.58-1.22-1.14-2.45-1.86-3.66l-.07.06c-3.47,3.13-8.69-1.54-6-5.34a8.89,8.89,0,0,1,1.93-2,6.42,6.42,0,0,1-6.08,1.65,5,5,0,0,1-3.6-4.92A4.24,4.24,0,0,1,71.4,129a14.43,14.43,0,0,1-8.22-1.72C61.55,126.34,60,124.84,60.47,122.79Z" style="fill: rgb(38, 50, 56); transform-origin: 127.596px 127.373px;" id="elwmkihizjvgj" class="animable"></path><path d="M149.43,106.37a20.84,20.84,0,0,1,2.33,2.08,16.54,16.54,0,0,1,3.61,7.6,29.58,29.58,0,0,1,.66,5.83c0,2.12-.11,4.39-.25,6.78a60.64,60.64,0,0,0-.09,7.54,26.19,26.19,0,0,0,.57,4,8.21,8.21,0,0,0,1.66,3.84,3.49,3.49,0,0,0,3.26,1.06,5.14,5.14,0,0,0,2.9-1.69c1.46-1.74,1.8-3.93,2.15-5.87l-.48.07a19.46,19.46,0,0,0,2.85,4.78,6.86,6.86,0,0,0,4.5,2.39,4.44,4.44,0,0,0,2.37-.45,3.77,3.77,0,0,0,1.59-1.6,3.93,3.93,0,0,0,.46-2,2.79,2.79,0,0,0-.76-1.78l-.24.22a14.87,14.87,0,0,0,5,3.64,12.83,12.83,0,0,0,1.54.58,2.36,2.36,0,0,0,.55.13,3.32,3.32,0,0,0-.52-.21c-.34-.14-.85-.34-1.49-.65a15.27,15.27,0,0,1-4.81-3.71l-.24.22a3,3,0,0,1,.19,3.41,3.48,3.48,0,0,1-1.44,1.43,4.07,4.07,0,0,1-2.15.37A6.39,6.39,0,0,1,169,142a18.8,18.8,0,0,1-2.75-4.68l-.34-.73-.14.79c-.35,1.94-.72,4-2,5.61a4.64,4.64,0,0,1-2.59,1.51,3,3,0,0,1-2.77-.89,7.77,7.77,0,0,1-1.54-3.6,24.81,24.81,0,0,1-.56-3.89,61.76,61.76,0,0,1,.05-7.47c.13-2.39.25-4.67.2-6.82a28.77,28.77,0,0,0-.73-5.91,16.24,16.24,0,0,0-3.83-7.65A9.23,9.23,0,0,0,149.43,106.37Z" style="fill: rgb(69, 90, 100); transform-origin: 166.52px 125.769px;" id="elvym0acynnzo" class="animable"></path><path d="M78.56,129.55s.06.06.18.15l.58.42a9.09,9.09,0,0,0,1,.61,14,14,0,0,0,1.41.72,20.41,20.41,0,0,0,9.86,1.66,26.13,26.13,0,0,0,13.82-5.28A45.22,45.22,0,0,0,117.15,114c1.64-2.8,3-5.67,4.45-8.32a30.47,30.47,0,0,1,5.05-7.06,15.83,15.83,0,0,1,6.58-4.1,11.49,11.49,0,0,1,3.49-.44,12.68,12.68,0,0,1,3.21.58,13.35,13.35,0,0,1,7.46,6.17,15.36,15.36,0,0,1,1.22,3.43.87.87,0,0,0,0-.24c0-.19-.07-.42-.12-.7a10.83,10.83,0,0,0-.9-2.59A12.91,12.91,0,0,0,145,97.22a13.42,13.42,0,0,0-4.91-3,12.46,12.46,0,0,0-3.31-.63,11.42,11.42,0,0,0-3.63.43,15.93,15.93,0,0,0-6.8,4.17,30.39,30.39,0,0,0-5.17,7.15c-1.49,2.67-2.83,5.54-4.45,8.31a45.08,45.08,0,0,1-11.6,13.75,26,26,0,0,1-13.55,5.3,20.71,20.71,0,0,1-9.74-1.47A34,34,0,0,1,78.56,129.55Z" style="fill: rgb(69, 90, 100); transform-origin: 113.589px 113.378px;" id="eli87kpjzs46" class="animable"></path><path d="M76.35,119.47a3.89,3.89,0,0,0,.83.57,18.8,18.8,0,0,0,2.46,1.21,24.17,24.17,0,0,0,3.88,1.22,25.1,25.1,0,0,0,9.92.21,24.38,24.38,0,0,0,3.93-1.07,17.76,17.76,0,0,0,2.5-1.11,3.57,3.57,0,0,0,.86-.53c0-.09-1.31.58-3.49,1.28a26.33,26.33,0,0,1-3.88.94,27.18,27.18,0,0,1-9.74-.2,26.58,26.58,0,0,1-3.84-1.1C77.63,120.1,76.4,119.38,76.35,119.47Z" style="fill: rgb(69, 90, 100); transform-origin: 88.54px 121.269px;" id="ela7bnyljrtdd" class="animable"></path><path d="M120.88,191.14c.18-.57,3.89.86,7.75-1.29s5-6.25,5.52-6.08c.25,0,.38,1.16-.23,2.84a9.83,9.83,0,0,1-4.39,5.16,8.58,8.58,0,0,1-6.41.84C121.52,192.15,120.76,191.38,120.88,191.14Z" style="fill: rgb(38, 50, 56); transform-origin: 127.613px 188.327px;" id="el2q8odelh47y" class="animable"></path><path d="M115.78,241.61s-38.3,16-48.57,23.51-3,58.87-3.84,69.54.74,90,.74,90-5.46,42.2-3.36,49.66c0,0,62,2.27,86.08,1.08s73,.34,73,.34l-1.47-56.09-2-87.77,15-76.31-59.35-21.91-1.26-3.78s-21.69,19.57-35.13,18.78S115.78,241.61,115.78,241.61Z" style="fill: rgb(69, 90, 100); transform-origin: 145.815px 352.813px;" id="el2h68060phde" class="animable"></path><g id="elnl0hf8gvl4p"><g style="opacity: 0.3; transform-origin: 142.024px 394.516px;" class="animable"><path d="M220.76,404.59c-1.35-3.5-4-6.31-6.68-8.94a199.42,199.42,0,0,0-67-43.39c-9.66-3.78-19.76-6.82-30.13-7.12s-21.1,2.35-29.12,8.93c-10.59,8.71-15,22.84-17,36.41S69,418,64.88,431.1l-2.39,12.07c4,1.74,8.79.25,12.06-2.6s5.3-6.85,7.11-10.8a185.48,185.48,0,0,0,13-39.58c1.61-7.78,3.12-16.39,9.29-21.41,6.78-5.52,16.71-4.59,25.07-2,27.61,8.5,48.52,30.6,72.75,46.33,5.32,3.46,12.9,6.44,17.43,2C221.85,412.46,222.11,408.08,220.76,404.59Z" id="elz3rsnkwnkf" class="animable" style="transform-origin: 142.024px 394.516px;"></path></g></g><path d="M231.4,255.59s10.13,5.59,14.26,12.14,20.61,56,20.61,56L211.37,340l-7.19-42.85Z" style="fill: rgb(69, 90, 100); transform-origin: 235.225px 297.795px;" id="elbimt3dyjm8u" class="animable"></path><path d="M69,263.86a27.52,27.52,0,0,0-13.91,11c-4.38,6.59-23.7,57.56-23.7,57.56l37.19,19.68Z" style="fill: rgb(69, 90, 100); transform-origin: 50.195px 307.98px;" id="el3mdrq0ch3tf" class="animable"></path><path d="M64.11,296.73c.14,0,.26,22,.26,49.26s-.12,49.26-.26,49.26-.26-22.05-.26-49.26S64,296.73,64.11,296.73Z" style="fill: rgb(38, 50, 56); transform-origin: 64.11px 345.99px;" id="eloslwjmm0jbs" class="animable"></path><path d="M227.77,259a11.21,11.21,0,0,1-1,1.18c-.7.73-1.69,1.81-2.88,3.18a80.52,80.52,0,0,0-14.44,24.11c-.65,1.69-1.14,3.07-1.45,4a9.24,9.24,0,0,1-.55,1.47,7.94,7.94,0,0,1,.36-1.53c.25-1,.69-2.39,1.29-4.1a72.28,72.28,0,0,1,14.52-24.23c1.22-1.35,2.26-2.4,3-3.08A7.78,7.78,0,0,1,227.77,259Z" style="fill: rgb(38, 50, 56); transform-origin: 217.61px 275.97px;" id="el1a1hfb14sem" class="animable"></path><path d="M215,342.14c-.14,0-1.24-9.14-2.45-20.45s-2.07-20.5-1.93-20.51,1.24,9.14,2.45,20.45S215.13,342.13,215,342.14Z" style="fill: rgb(38, 50, 56); transform-origin: 212.809px 321.66px;" id="elu2l3qcg1gq" class="animable"></path><path d="M161.66,333.79l55.39,28,.55-1.35-2.41-21.53,46-13.65s4.47,51.35,7,62.15c3.91,16.87-9.82,37.31-34.81,37.28-13.36,0-92.55-62.6-92.55-62.6Z" style="fill: rgb(174, 116, 97); transform-origin: 204.839px 374.975px;" id="elnjkheub8zv" class="animable"></path><path d="M76.62,331.77l15.14,29.28L82.17,389.9l-4.1,11.59S67.12,444.1,55.29,445.13s-20.82-.79-30-18.77c-10-19.56,4.3-73.06,8.82-92.57l29.07,14.45,13.46-16.47" style="fill: rgb(174, 116, 97); transform-origin: 56.7869px 388.564px;" id="ele1b4mz8ampo" class="animable"></path><path d="M136.57,320.25c-2.25-.76-7.82,3.55-11.13,6.38a56.26,56.26,0,0,1-9.32,5.8s24-21.08,24-24.3-1.55-5.48-5.68-3.63c0,0,4.74-3.79.64-7.94s-30,19.55-30,19.55L103.92,315s22.51-19.59,21.17-21.39-5.07-3.33-9.74.69S92.57,312.81,89,316.62c-6.22,6.65-8.7,5.75-10.87,5.69l-15,25.93,27.47,15.22s13.21-4.57,27.23-20.38c0,0,14.6-11,17.61-14.74S138.81,321,136.57,320.25Z" style="fill: rgb(174, 116, 97); transform-origin: 101.625px 327.611px;" id="elhmx5tse4bbb" class="animable"></path><path d="M142,362.85s-14.87-1-33.7-13.42c0,0-18.09-7.27-22.23-10.27s-5.47-6.62-3.38-8,9,1.48,13.23,3.47S107.09,338,107.09,338s-30.58-15-31.42-18.35.06-6.07,4.83-5.32c0,0-5.93-2.59-2.87-8,2.8-4.93,30.75,8.95,35.61,11.41a.83.83,0,0,0,1.11-.34h0a.84.84,0,0,0-.35-1.17c-3.53-1.81-18-9.3-24-13.51-3.8-2.66,1.55-7.64,7.47-4.8s28.43,13.85,34,14.4,12.89,1.56,13.48.08-2.64-7.48-4-10.08-3.61-8.29,3.06-10c0,0,9.49,11.88,12.55,16.34s8.22,26.5,8.22,26.5" style="fill: rgb(174, 116, 97); transform-origin: 120.085px 327.585px;" id="el53icoqlj40m" class="animable"></path><path d="M164.67,335.2s-.08-.28-.22-.82-.35-1.35-.61-2.4c-.55-2.11-1.35-5.24-2.49-9.24-.56-2-1.22-4.23-2-6.65-.39-1.2-.82-2.46-1.32-3.74a19.35,19.35,0,0,0-1.87-3.83c-3.46-4.83-7.7-10.15-12.39-16l.18.06a7.94,7.94,0,0,0-2.7,1.22,4.12,4.12,0,0,0-1.59,2.48,6.39,6.39,0,0,0,.19,3.09,14.36,14.36,0,0,0,1.23,3c1.05,2,2.12,4,3,6.13a11.75,11.75,0,0,1,1,3.44,1.49,1.49,0,0,1-.06.5.8.8,0,0,1-.32.46,2.45,2.45,0,0,1-.92.36,10.3,10.3,0,0,1-1.83.17,69,69,0,0,1-7.4-.51c-1.25-.15-2.5-.22-3.78-.43a23.3,23.3,0,0,1-3.76-1.05c-4.91-1.73-9.81-3.92-14.83-6.19S102.12,300.43,96.9,298a7.63,7.63,0,0,0-4.14-.56,4.93,4.93,0,0,0-3.5,2.06,2,2,0,0,0-.15,1.9,3.69,3.69,0,0,0,1.47,1.46c1.22.84,2.51,1.62,3.79,2.4,5.19,3.09,10.61,6,16.14,8.89l2.09,1.09,1,.54.54.27a1.11,1.11,0,0,1,0,1.92,1.09,1.09,0,0,1-.75.12,2.53,2.53,0,0,1-.61-.26l-2.12-1.06c-2.85-1.39-5.73-2.76-8.66-4.07a116.42,116.42,0,0,0-17-6.41,21.76,21.76,0,0,0-4.34-.73,5.3,5.3,0,0,0-2.08.27,1.7,1.7,0,0,0-.74.57c-.17.28-.31.63-.47.94a4.54,4.54,0,0,0,.11,4,6.84,6.84,0,0,0,3,2.75l1.44.71-1.58-.22a6.64,6.64,0,0,0-2.88.07,2.54,2.54,0,0,0-1.81,1.89,6.22,6.22,0,0,0,.1,2.84.75.75,0,0,0,.1.31,1,1,0,0,0,.16.27,3.74,3.74,0,0,0,.47.51,11,11,0,0,0,1.11.94,96,96,0,0,0,9.87,6.12c6.67,3.71,13.25,7.09,19.61,10.25l1.62.8-1.77-.37a70.07,70.07,0,0,1-8.49-2.28,35.72,35.72,0,0,1-4-1.67c-1.28-.58-2.56-1.13-3.84-1.63a36.32,36.32,0,0,0-3.87-1.26,7.27,7.27,0,0,0-3.82-.2,1.92,1.92,0,0,0-1.12,1.3,3.16,3.16,0,0,0,.17,1.79,8.61,8.61,0,0,0,2.08,3.08,15.67,15.67,0,0,0,2.89,2.28c1.06.62,2.12,1.19,3.2,1.72,2.13,1.07,4.25,2,6.32,3,4.13,1.84,8,3.5,11.71,5h0a91.61,91.61,0,0,0,24.25,11.51,65.37,65.37,0,0,0,6.94,1.67c.8.14,1.41.22,1.82.28l.61.09-.62-.05c-.41,0-1-.11-1.82-.24a57.22,57.22,0,0,1-7-1.59,90.79,90.79,0,0,1-24.37-11.4h0c-3.67-1.48-7.6-3.12-11.74-4.95-2.07-.92-4.19-1.88-6.34-2.95C89,341.15,88,340.57,86.89,340a15.8,15.8,0,0,1-3-2.33,9.25,9.25,0,0,1-2.19-3.22,3.58,3.58,0,0,1-.18-2,2.31,2.31,0,0,1,1.36-1.59A7.53,7.53,0,0,1,87,331a35.08,35.08,0,0,1,3.92,1.27c1.3.5,2.58,1,3.87,1.63a36.26,36.26,0,0,0,3.91,1.64,69.23,69.23,0,0,0,8.44,2.26l-.14.43C100.61,335,94,331.67,87.34,328a94.37,94.37,0,0,1-9.93-6.14,11.8,11.8,0,0,1-1.16-1,4.2,4.2,0,0,1-.52-.58,1.76,1.76,0,0,1-.35-.76,6.62,6.62,0,0,1-.1-3.07A3.16,3.16,0,0,1,76,315a3.22,3.22,0,0,1,1.38-.83,7.16,7.16,0,0,1,3.12-.09l-.14.49a7.4,7.4,0,0,1-3.31-3,5.08,5.08,0,0,1-.13-4.45c.18-.35.31-.68.52-1a2.13,2.13,0,0,1,1-.77,5.71,5.71,0,0,1,2.3-.3,22.36,22.36,0,0,1,4.45.74,116.44,116.44,0,0,1,17,6.43q4.41,2,8.68,4.09l2.13,1.06a2.46,2.46,0,0,0,.47.21.58.58,0,0,0,.66-.77.55.55,0,0,0-.25-.31l-.51-.26-1-.54-2.09-1.09c-5.54-2.9-11-5.81-16.16-8.91-1.29-.79-2.58-1.57-3.82-2.42a4.25,4.25,0,0,1-1.64-1.67,2.47,2.47,0,0,1,.18-2.36,5.38,5.38,0,0,1,3.86-2.3,8.06,8.06,0,0,1,4.4.59c5.26,2.48,10.33,5,15.35,7.24s9.9,4.48,14.78,6.21a23.79,23.79,0,0,0,3.68,1c1.23.21,2.52.29,3.76.44A68.62,68.62,0,0,0,142,313a10.11,10.11,0,0,0,1.76-.15,2,2,0,0,0,.74-.29c.2-.12.22-.34.22-.62a11.24,11.24,0,0,0-1-3.28c-.91-2.13-2-4.14-3-6.1a14.72,14.72,0,0,1-1.25-3.09,6.84,6.84,0,0,1-.19-3.27,4.52,4.52,0,0,1,1.74-2.69,8.35,8.35,0,0,1,2.84-1.28l.1,0,.08.1c4.67,5.92,8.89,11.25,12.34,16.11a19.08,19.08,0,0,1,1.88,3.9c.5,1.29.92,2.55,1.31,3.76.78,2.42,1.42,4.65,2,6.66,1.11,4,1.88,7.15,2.39,9.27l.57,2.42C164.62,334.91,164.67,335.2,164.67,335.2Z" style="fill: rgb(111, 68, 57); transform-origin: 119.908px 327.56px;" id="elnsw3qaunhq" class="animable"></path><path d="M67,341.92a7.77,7.77,0,0,1-.4.76c-.29.49-.69,1.22-1.26,2.13-1.12,1.83-2.82,4.43-5,7.58-4.34,6.33-10.84,14.71-17.45,24.34a132.51,132.51,0,0,0-8.59,14A41.87,41.87,0,0,0,30,403.41a28.13,28.13,0,0,0,0,9,24.38,24.38,0,0,0,.53,2.4,8.17,8.17,0,0,1,.21.83,5.08,5.08,0,0,1-.31-.8,19.47,19.47,0,0,1-.63-2.4,27.2,27.2,0,0,1-.2-9.08,41.07,41.07,0,0,1,4.16-12.82,128.59,128.59,0,0,1,8.59-14.1c6.63-9.66,13.17-18,17.58-24.26,2.23-3.12,4-5.68,5.13-7.48.6-.89,1-1.6,1.35-2.07A4.53,4.53,0,0,1,67,341.92Z" style="fill: rgb(111, 68, 57); transform-origin: 48.1559px 378.78px;" id="el93u6rs2ysyc" class="animable"></path><path d="M111.53,328.76a6.47,6.47,0,0,1-1.21-.5c-.76-.35-1.85-.88-3.19-1.55l-10.44-5.27c-4.08-2-7.84-3.75-10.59-4.93l-3.26-1.39a6.09,6.09,0,0,1-1.18-.56,6.6,6.6,0,0,1,1.25.37c.8.27,1.93.69,3.33,1.24,2.79,1.09,6.59,2.76,10.68,4.8s7.74,4,10.38,5.42l3.12,1.69A5.54,5.54,0,0,1,111.53,328.76Z" style="fill: rgb(111, 68, 57); transform-origin: 96.595px 321.66px;" id="el2s0f6odjd2" class="animable"></path><path d="M240.17,376.33a6.45,6.45,0,0,1-1.1-.84c-.7-.56-1.72-1.35-3-2.28-2.59-1.86-6.32-4.22-10.53-6.67s-8.13-4.51-11-6l-3.38-1.71a6.74,6.74,0,0,1-1.22-.67,8,8,0,0,1,1.31.49c.82.35,2,.87,3.45,1.56,2.9,1.38,6.83,3.41,11.07,5.85a105.14,105.14,0,0,1,10.49,6.83c1.28,1,2.27,1.81,2.93,2.41A7,7,0,0,1,240.17,376.33Z" style="fill: rgb(111, 68, 57); transform-origin: 225.055px 367.245px;" id="el242tvm3356w" class="animable"></path></g><g id="freepik--character-2--inject-26" class="animable animator-active" style="transform-origin: 350.868px 291.957px;"><path d="M269.68,121.55c.64-3.63,2.24-7.3,5.27-9.4,3.72-2.57,8.67-2.24,13.13-1.52,6.39,1,13.27,3,16.91,8.37a17.13,17.13,0,0,1,2.58,10.68,35.67,35.67,0,0,1-2.77,10.8L288,147.57c-4-6.37-13-8.3-16.75-14.79A16.59,16.59,0,0,1,269.68,121.55Z" style="fill: rgb(38, 50, 56); transform-origin: 288.477px 128.842px;" id="el5z01psc4jik" class="animable"></path><path d="M433,263.56c.61-1.64,2.45-2.38,4-3.2a17.19,17.19,0,0,0-.29-30.54,13.06,13.06,0,0,1-4-2.38c-2.61-2.83-1-7.36-1.55-11.17-1.24-8.05-12-11.19-14.9-18.81-1.76-4.65-.18-9.8.77-14.68s.87-10.75-3-13.84c-2.1-1.66-4.95-2.16-7-3.9-4.19-3.6-3-10.19-3.95-15.63a18.85,18.85,0,0,0-18.52-15.13s4.47-6.91-3.89-12c-10.09-6.15-11.93,1.48-16.17-4.07a16.43,16.43,0,0,0-20-4.42c-2.05,1.07-3.87,2.6-6.05,3.37-2.67.93-5.58.65-8.4.85-10.74.76-30.25,10.82-26.22,25.2l55.29,128.4s12.74,4.58,22.09,10.68c2.05,1.34,2.73,19.2,5.05,20a15.7,15.7,0,0,0,9-.14,25.87,25.87,0,0,0,15.33-11.89,16.53,16.53,0,0,0,23.75-21.15C433.49,267.31,432.29,265.39,433,263.56Z" style="fill: rgb(38, 50, 56); transform-origin: 374.721px 207.498px;" id="elponwity4ks" class="animable"></path><path d="M299.51,161.6l-.66-8.25,49-12.42c15.2-2.53,32.66,11.8,34.55,27.09,2.1,17,4,37.82,2.74,50.66C382.66,244.51,363.24,249,363.24,249l1.42,25.4-56.54,4.12Z" style="fill: rgb(255, 191, 157); transform-origin: 342.197px 209.579px;" id="el0vzqvvyz6fvh" class="animable"></path><path d="M373.17,191.85a3.29,3.29,0,0,1-3,3.5,3.15,3.15,0,0,1-3.56-2.76,3.3,3.3,0,0,1,3-3.5A3.16,3.16,0,0,1,373.17,191.85Z" style="fill: rgb(38, 50, 56); transform-origin: 369.89px 192.221px;" id="el6s1m87hgjyt" class="animable"></path><path d="M377.68,179.22c-.38.45-3-1.24-6.51-1s-6,2.14-6.42,1.73c-.2-.18.17-1,1.25-1.86a9,9,0,0,1,5.11-1.92,8.68,8.68,0,0,1,5.21,1.34C377.46,178.26,377.87,179,377.68,179.22Z" style="fill: rgb(38, 50, 56); transform-origin: 371.211px 178.08px;" id="el5xcfoazkvl5" class="animable"></path><path d="M341.34,192.78a3.3,3.3,0,0,1-3,3.51,3.15,3.15,0,0,1-3.56-2.76,3.29,3.29,0,0,1,3-3.5A3.15,3.15,0,0,1,341.34,192.78Z" style="fill: rgb(38, 50, 56); transform-origin: 338.06px 193.16px;" id="elp89pkqkw14" class="animable"></path><path d="M343,182c-.38.46-3-1.23-6.51-1s-6,2.14-6.42,1.73c-.19-.18.17-1,1.25-1.87a9,9,0,0,1,5.11-1.91,8.68,8.68,0,0,1,5.21,1.34C342.79,181,343.2,181.76,343,182Z" style="fill: rgb(38, 50, 56); transform-origin: 336.535px 180.86px;" id="ely2hevb389d" class="animable"></path><path d="M357.4,207.38c0-.2,2.15-.71,5.68-1.38.89-.15,1.74-.38,1.85-1a4.61,4.61,0,0,0-.76-2.64q-1.47-3.2-3.08-6.7c-4.29-9.56-7.46-17.43-7.07-17.6s4.18,7.43,8.47,17l3,6.75c.4,1,1.06,2.13.68,3.51a2.27,2.27,0,0,1-1.41,1.41,5.91,5.91,0,0,1-1.51.3C359.65,207.43,357.43,207.58,357.4,207.38Z" style="fill: rgb(38, 50, 56); transform-origin: 360.136px 192.763px;" id="eleiv9x72ieig" class="animable"></path><path d="M363.23,249a67.92,67.92,0,0,1-35.69-7.08s9.72,17.39,36.06,13.46Z" style="fill: rgb(255, 154, 108); transform-origin: 345.57px 248.939px;" id="el2ixc7o7zwk5" class="animable"></path><path d="M324.78,176.18c.06-1,3.57-1.59,7.41-3.25s6.73-3.7,7.51-3c.35.33.05,1.36-1,2.64a14.07,14.07,0,0,1-11.36,4.78C325.71,177.16,324.76,176.66,324.78,176.18Z" style="fill: rgb(38, 50, 56); transform-origin: 332.31px 173.58px;" id="elo9xt15eqq9n" class="animable"></path><path d="M366,165.28c.9-.48,2.78,1.27,5.44,2.5s5.16,1.72,5.34,2.72c.06.47-.62,1.05-1.92,1.3a8.67,8.67,0,0,1-8.69-4.21C365.53,166.42,365.56,165.52,366,165.28Z" style="fill: rgb(38, 50, 56); transform-origin: 371.231px 168.541px;" id="elckz53tvl1rk" class="animable"></path><path d="M382.34,149.62A43,43,0,0,0,359,134.2l-41.42,5.21-11.32,6.81c-.78-2.61,1.32-5.58,1.32-5.58-3.89-3-17.19-7.78-26.59,2-3.39,3.55-6.22,13-6.3,17.88,0,1.86.15,4.12-1.4,5.14a5.54,5.54,0,0,1-1.84.61c-10.54,2.31-18,14-15.69,24.54A5.56,5.56,0,0,1,256,193a5.67,5.67,0,0,1-1.84,2.75,18.26,18.26,0,0,0-2.9,20.35c1,2,2.46,3.88,2.81,6.11.64,4-2.27,7.53-4.52,10.88-6.76,10-8.21,24.61-.28,33.75,1.93,2.22,4.42,4.2,5.14,7a17.16,17.16,0,0,1,.23,4.3c-.06,7.29,3.79,15.44,10.91,17,4,.85,8.76-.26,11.58,2.64,1.22,1.27,1.74,3,2.52,4.62a14.79,14.79,0,0,0,17,7.33c6.43-2,8.56-28.06,7.63-34.72,7.78-2.83,13.54-3.33,13.18-11.61,0,0-1.2-14.24,1.1-21.18s-2.32-21.71-4.95-28.88.5-23.86,1.21-30.5a24.08,24.08,0,0,0-.55-5.68h0v0c-.29-1.62-.67-3.43-1.12-5.38a51.13,51.13,0,0,1-.14-5.35,9.45,9.45,0,0,1,12.35-8.77,15.45,15.45,0,0,0,4.47.8,15.89,15.89,0,0,0,12.79-6.06,22.85,22.85,0,0,0,22.57,6.17c3.2,4.47,6.45,9,10.71,12.46s9.72,5.83,15.17,5.22A43,43,0,0,0,382.34,149.62Z" style="fill: rgb(38, 50, 56); transform-origin: 317.479px 222.231px;" id="elowshpwdvewr" class="animable"></path><path d="M378,157c-.07,0,.05-.94-.09-2.61a16.44,16.44,0,0,0-2.12-6.75,15.14,15.14,0,0,0-7.93-6.81,15.93,15.93,0,0,0-12.88.79l-.3.16-.22-.26a23.41,23.41,0,0,0-5.64-4.94,23.92,23.92,0,0,0-15.39-3.5,23.48,23.48,0,0,0-11.93,5.15,25.11,25.11,0,0,0-5.78,6.74c-1.05,1.84-1.45,3-1.53,2.92a3.18,3.18,0,0,1,.25-.82,17.18,17.18,0,0,1,1-2.26,24.1,24.1,0,0,1,5.69-7,23.7,23.7,0,0,1,12.21-5.46A24.38,24.38,0,0,1,355.14,141l-.52-.1a16.58,16.58,0,0,1,13.53-.74,15.58,15.58,0,0,1,8.15,7.22,16,16,0,0,1,1.93,7,10.07,10.07,0,0,1-.07,2A2.21,2.21,0,0,1,378,157Z" style="fill: rgb(69, 90, 100); transform-origin: 346.221px 144.581px;" id="el6694tsf7vcv" class="animable"></path><path d="M283.54,156.71c.15.08.92-1.6,2.89-3.72A17.56,17.56,0,0,1,307,148.94c2.63,1.21,4,2.48,4.08,2.34s-.25-.4-.86-1a15.15,15.15,0,0,0-2.92-2,17.2,17.2,0,0,0-21.35,4.21,14.25,14.25,0,0,0-1.94,3A3.12,3.12,0,0,0,283.54,156.71Z" style="fill: rgb(69, 90, 100); transform-origin: 297.316px 151.484px;" id="el3zpq6dbxtjg" class="animable"></path><path d="M285.13,233.26a9.84,9.84,0,0,0,3.28-2.16,15.4,15.4,0,0,0,4.62-9.57,14.17,14.17,0,0,0-3.22-11,9.63,9.63,0,0,1-2.09-3.55,4.38,4.38,0,0,1,1.2-3.81c1-1.14,2.23-2.12,3.39-3.31a8.49,8.49,0,0,0,2.45-4.51,12.57,12.57,0,0,0-.24-5.25c-.88-3.46-2.73-6.34-3.88-9.31a18.55,18.55,0,0,1,6.37-21.9,19.34,19.34,0,0,1,9.79-3.45c2.5-.17,3.88.14,3.89,0a4.31,4.31,0,0,0-1-.24,16.61,16.61,0,0,0-2.92-.18,19.09,19.09,0,0,0-10.16,3.27,18.77,18.77,0,0,0-8.06,13.42,19.1,19.1,0,0,0,1.2,9.39c1.19,3.07,3,6,3.82,9.19a11.69,11.69,0,0,1,.24,4.84,7.57,7.57,0,0,1-2.19,4c-1.1,1.14-2.36,2.13-3.41,3.38a5.26,5.26,0,0,0-1.37,4.6,10.3,10.3,0,0,0,2.29,3.88,13.39,13.39,0,0,1,3.21,10.37,15.37,15.37,0,0,1-4.21,9.37A23.79,23.79,0,0,1,285.13,233.26Z" style="fill: rgb(69, 90, 100); transform-origin: 297.91px 194.137px;" id="el5tdpa53jb3x" class="animable"></path><path d="M278.4,146.62c.2.14,1.16-2.76,4.82-5.43a17.71,17.71,0,0,1,7.16-3.07,24.16,24.16,0,0,1,9.57.31,15.77,15.77,0,0,1,1.87.6l.57.22.17-.57a26.5,26.5,0,0,1,9.26-13c3.31-2.5,5.79-3.32,5.7-3.51a5.31,5.31,0,0,0-1.75.52,22.31,22.31,0,0,0-4.4,2.38,25.82,25.82,0,0,0-9.87,13.32l.74-.34a15.41,15.41,0,0,0-2-.66,24,24,0,0,0-10-.24,17.56,17.56,0,0,0-7.44,3.45,13.8,13.8,0,0,0-3.61,4.18A5,5,0,0,0,278.4,146.62Z" style="fill: rgb(69, 90, 100); transform-origin: 297.961px 134.397px;" id="el7o09nfht0bs" class="animable"></path><path d="M354.85,215.94a6.24,6.24,0,0,0-5.48-2.59,5.66,5.66,0,0,0-4,1.91,3.62,3.62,0,0,0-.48,4.11c.87,1.36,2.81,1.76,4.48,1.38a13.3,13.3,0,0,0,4.56-2.42,3.75,3.75,0,0,0,1-1,1.17,1.17,0,0,0,.06-1.29" style="fill: rgb(255, 154, 108); transform-origin: 349.808px 217.111px;" id="elgybazsbki4h" class="animable"></path><path d="M346.42,209.56c.56,0,.38,3.75,3.47,6.58s7.1,2.62,7.1,3.14c.05.24-.92.69-2.62.65a9.39,9.39,0,0,1-5.94-2.41,8.18,8.18,0,0,1-2.67-5.51C345.7,210.43,346.16,209.52,346.42,209.56Z" style="fill: rgb(38, 50, 56); transform-origin: 351.373px 214.746px;" id="elgwh32erkyjt" class="animable"></path><path d="M272.28,277.22l27.83-11.15s30.45,11.62,45.83,10.67,29.51-10.67,29.51-10.67l41.72,12.45,2.57,48.32-3.16,82.46s7.06,27.89,6.2,37.62-9.61,14.37-9.61,14.37l2.06,12.51H282.35L285.07,461s-17.41-1.46-13-27.65c1.34-7.86,13.49-23,8.27-54.83C274.85,344.81,272.28,277.22,272.28,277.22Z" style="fill: rgb(180, 207, 102); transform-origin: 347.103px 369.935px;" id="els9csgbup6i" class="animable"></path><g id="elsmxgu2vzwwo"><g style="opacity: 0.3; transform-origin: 347.108px 400.715px;" class="animable"><path d="M404,375.38c-3.13-5.67-6.65-11.41-12-15.09-5.6-3.85-12.63-5-19.43-5.17-10.09-.22-20.42,1.73-29.09,6.91-12,7.15-19.67,19.6-26.45,31.79s-13.43,25-24.3,33.74l-21.82,16c22.17,3.66,46-5.59,59.9-23.24,11.89-15.1,17-35.7,32.46-47.16a32.58,32.58,0,0,1,9.82-5.09c5.25-1.59,11.28-1.45,15.82,1.61,5.77,3.88,7.82,11.28,9.29,18.07,4.34,20,7.83,41.27,20.92,57,.88,1.06,2.45,2.15,3.48,1.23a2.64,2.64,0,0,0,.62-1.93C424.27,420,415.61,396.47,404,375.38Z" id="elpmkfvvchfmq" class="animable" style="transform-origin: 347.108px 400.715px;"></path></g></g><path d="M416.69,278.47s18.92.73,29.08,44.54c4.52,19.51,25,86.42,15,106-9.2,18-18.2,19.81-30,18.78s-26.27-43.34-26.27-43.34V394l-10.2-23.82,15.14-35.75" style="fill: rgb(180, 207, 102); transform-origin: 428.894px 363.245px;" id="elh0ekruy5zj" class="animable"></path><path d="M409.43,334.4s-.07.22-.24.63l-.75,1.83-2.95,7.06c-2.58,6.16-6.34,15.11-11.05,26.29v-.13c3,7.05,6.47,15.05,10.24,23.81l0,0v0c0,3.26,0,6.81,0,10.46v-.07c2.13,6.05,4.62,12.32,7.52,18.71,1.45,3.19,3,6.4,4.78,9.58a66.49,66.49,0,0,0,6,9.27,22.21,22.21,0,0,0,4,3.95,7.4,7.4,0,0,0,1.18.76,6.53,6.53,0,0,0,1.26.58,8.81,8.81,0,0,0,1.35.31l1.44.1a37.56,37.56,0,0,0,5.81,0,28.38,28.38,0,0,0,2.9-.37,21.6,21.6,0,0,0,12.49-7.52,50.38,50.38,0,0,0,6.74-10.18,24.42,24.42,0,0,0,2.49-8,56.6,56.6,0,0,0,.56-8.31A129.93,129.93,0,0,0,462.05,397c-1.37-10.64-3.45-20.79-5.61-30.4s-4.49-18.69-6.7-27.18q-1.64-6.37-3.17-12.29c-.95-4-1.93-7.74-2.86-11.35a105.6,105.6,0,0,0-7.22-18.71,48.19,48.19,0,0,0-8.76-12.3,25,25,0,0,0-7.83-5.4c-.51-.2-1-.35-1.36-.49l-1-.27-.84-.14h.22l.63.09,1,.24c.4.14.87.27,1.38.47a24.42,24.42,0,0,1,7.93,5.36,47.47,47.47,0,0,1,8.88,12.3,105.6,105.6,0,0,1,7.31,18.75c.94,3.62,1.94,7.4,2.9,11.35s2.09,8,3.2,12.28c2.22,8.48,4.56,17.56,6.75,27.18s4.26,19.78,5.65,30.44a130.91,130.91,0,0,1,1.19,16.35,56.29,56.29,0,0,1-.57,8.38,24.81,24.81,0,0,1-2.54,8.14,50.4,50.4,0,0,1-6.81,10.28A23.29,23.29,0,0,1,444,447a22.57,22.57,0,0,1-2.9.78c-1,.15-2,.33-3,.38a38.47,38.47,0,0,1-5.88,0l-1.45-.11a9,9,0,0,1-1.47-.33,8.2,8.2,0,0,1-1.35-.61,8.37,8.37,0,0,1-1.23-.8,23.58,23.58,0,0,1-4.07-4,65.64,65.64,0,0,1-6.06-9.35c-1.76-3.21-3.34-6.43-4.79-9.63-2.9-6.4-5.38-12.69-7.51-18.76v-.07c0-3.65,0-7.2,0-10.46l0,.08-10.16-23.84,0-.06,0-.07,11.19-26.23c1.31-3.05,2.33-5.41,3-7,.35-.78.61-1.39.8-1.81Z" style="fill: rgb(38, 50, 56); transform-origin: 428.936px 363.371px;" id="elpusxod9cu6" class="animable"></path><path d="M416.69,303.5a7.7,7.7,0,0,1-.24,1.5c-.2,1.06-.47,2.43-.79,4.08A101.42,101.42,0,0,0,414,322.63a68.67,68.67,0,0,0,.76,13.6c.28,1.73.54,3.12.75,4.08a7.37,7.37,0,0,1,.25,1.5,9.55,9.55,0,0,1-.45-1.45c-.27-.95-.58-2.34-.91-4.06a61.38,61.38,0,0,1-.92-13.7A86,86,0,0,1,415.3,309c.37-1.72.7-3.1.95-4.05A9,9,0,0,1,416.69,303.5Z" style="fill: rgb(38, 50, 56); transform-origin: 415.054px 322.655px;" id="elwa5fzdobhy" class="animable"></path><path d="M280.57,278.61c-3.54-2.36-4.51-7.85-2.88-12s5.25-7,9.11-8.72c6.4-2.8,13.57-2.81,20.41-1.79a78.72,78.72,0,0,1,37.92,17.11,153.11,153.11,0,0,1,35.52-22.4c2.93-1.32,6.2-2.55,9.19-1.41,2.54,1,4.33,3.52,5.21,6.27a31,31,0,0,1,1.08,8.61c.13,4.2.05,9-2.85,11.78-1.87,1.8-4.49,2.32-7,2.76-17.78,3.19-36,6.38-53.71,2.72-8.7-1.8-17.06-5.23-25.78-6.88s-17.38,2.47-26.26,3.94" style="fill: rgb(180, 207, 102); transform-origin: 336.544px 266.062px;" id="el9no40loukod" class="animable"></path><path d="M439.27,314.64c0,.08-1.6.66-4.1,1.87a49,49,0,0,0-16.86,13.33c-1.75,2.16-2.69,3.61-2.77,3.56a5.38,5.38,0,0,1,.59-1.07,31.8,31.8,0,0,1,1.89-2.72,44.08,44.08,0,0,1,7.66-7.78,44.58,44.58,0,0,1,9.33-5.66c1.28-.56,2.34-1,3.09-1.21A4.76,4.76,0,0,1,439.27,314.64Z" style="fill: rgb(38, 50, 56); transform-origin: 427.405px 324.021px;" id="elgz1rraa2ugs" class="animable"></path><path d="M346.25,278.59a2.76,2.76,0,0,1,.36-.55c.25-.34.63-.85,1.16-1.47A21.9,21.9,0,0,1,353,272a14.56,14.56,0,0,1,2.05-1,4.62,4.62,0,0,1,1.21-.37,1.6,1.6,0,0,1,1.34.39,2.2,2.2,0,0,1,.2,2.72,7.3,7.3,0,0,1-2.1,2,20.48,20.48,0,0,1-23.74,0,6.26,6.26,0,0,1-1.14-.94,1.38,1.38,0,0,1-.35-.74,1.06,1.06,0,0,1,.24-.82,2,2,0,0,1,1.37-.56,5.36,5.36,0,0,1,1.35.11,23.4,23.4,0,0,1,4.57,1.42,51.62,51.62,0,0,1,6.17,3.1c.7.41,1.23.75,1.59,1a3.21,3.21,0,0,1,.53.39,3,3,0,0,1-.59-.3L344,277.4a63.63,63.63,0,0,0-6.2-2.94,23.21,23.21,0,0,0-4.51-1.33,5.24,5.24,0,0,0-1.24-.1,1.6,1.6,0,0,0-1.06.42.71.71,0,0,0,.12,1,6.26,6.26,0,0,0,1.06.85,20.18,20.18,0,0,0,23.18,0,7,7,0,0,0,2-1.81,1.78,1.78,0,0,0-.1-2.18c-.54-.53-1.41-.26-2.11,0a15.15,15.15,0,0,0-2,1,22.72,22.72,0,0,0-5.22,4.37c-.55.59-.95,1.07-1.23,1.4A4.49,4.49,0,0,1,346.25,278.59Z" style="fill: rgb(38, 50, 56); transform-origin: 344.32px 275.069px;" id="elxlv4ghqbsl" class="animable"></path><path d="M341.91,315.82a10,10,0,0,1-.12-1.48c-.05-.95-.07-2.33-.06-4a123.09,123.09,0,0,1,3.07-26.4c.39-1.66.73-3,1-3.91a7.13,7.13,0,0,1,.46-1.41,8.7,8.7,0,0,1-.26,1.46c-.22,1-.49,2.35-.83,3.94-.67,3.33-1.49,7.95-2.1,13.1s-.86,9.83-1,13.23c0,1.62-.08,3-.11,4A7,7,0,0,1,341.91,315.82Z" style="fill: rgb(38, 50, 56); transform-origin: 343.994px 297.22px;" id="el0qz7qznfw2l" class="animable"></path><path d="M356.66,299.82a20,20,0,0,1-1.28-2.74l-2.91-6.68-3-6.66a17.63,17.63,0,0,1-1.15-2.8,17,17,0,0,1,1.49,2.64c.85,1.67,2,4,3.11,6.61s2.12,5,2.78,6.75A16.33,16.33,0,0,1,356.66,299.82Z" style="fill: rgb(38, 50, 56); transform-origin: 352.49px 290.38px;" id="el57wb0lb2912" class="animable"></path><path d="M338.85,280.94a3.52,3.52,0,0,1-.58-.21l-1.62-.68c-.69-.31-1.54-.67-2.56-1.05s-2.13-.86-3.43-1.28-2.68-.93-4.22-1.36-3.18-.87-4.92-1.31a88.27,88.27,0,0,0-23.14-2.31c-1.79.08-3.5.14-5.08.31s-3.07.31-4.41.49-2.56.4-3.62.58-2,.35-2.72.52l-1.71.35a2.51,2.51,0,0,1-.61.08,4.1,4.1,0,0,1,.58-.19l1.7-.44c.74-.19,1.64-.41,2.71-.61s2.26-.48,3.61-.65,2.83-.43,4.43-.56,3.3-.26,5.1-.36a91,91,0,0,1,11.72.35,93.29,93.29,0,0,1,11.55,2c1.75.46,3.41.87,4.93,1.37s2.95,1,4.23,1.43,2.41.94,3.41,1.35,1.85.8,2.54,1.14l1.57.77A2.82,2.82,0,0,1,338.85,280.94Z" style="fill: rgb(38, 50, 56); transform-origin: 309.54px 276.573px;" id="elz3smw94pli8" class="animable"></path><path d="M392.84,270.07a11.86,11.86,0,0,1-1.65.63c-1.06.38-2.62.89-4.56,1.49-3.87,1.19-9.26,2.69-15.3,4s-11.56,2.27-15.57,2.82c-2,.28-3.63.47-4.76.58a11.94,11.94,0,0,1-1.76.13,11.38,11.38,0,0,1,1.73-.33l4.73-.74c4-.65,9.5-1.63,15.52-3s11.42-2.77,15.31-3.88l4.6-1.32A10.05,10.05,0,0,1,392.84,270.07Z" style="fill: rgb(38, 50, 56); transform-origin: 371.04px 274.895px;" id="el9s37s15fjqp" class="animable"></path><path d="M422.89,350.88s-15-19.92-19.67-22.13-36.93-16.62-39.56-17.84-6.4.7-5.64,2.17,3,4.93,3,4.93l-5.3-2.43-4.24,13.17S367,348.49,371.54,354s22.75,9.71,22.75,9.71l3.57,7.16C415.76,370.1,422.89,350.88,422.89,350.88Z" style="fill: rgb(255, 191, 157); transform-origin: 387.185px 340.696px;" id="elk06p5lyks1p" class="animable"></path><path d="M341.88,342.93s4.39-17.92,6.42-21.36,10.14-13,11.16-16.44.75-6.08,2.2-6.49,5.1,3,5.1,6.7-5.1,14.6-5.1,14.6,17.48-6.49,22.75-8.31,20.29-2.44,20.29-2.44,2.43,3.65-.81,6.09l8.11-.81s.81,4.46-1.82,5.68l4.46-1.22s3,4.87-3.25,7.71l-1.82.81s2.23,3.45-.61,5.88-14.81,8.12-16.84,10.35-14.2,13.79-19.88,15.62a141.51,141.51,0,0,0-14.16,5.91Z" style="fill: rgb(255, 191, 157); transform-origin: 378.62px 331.908px;" id="elsgqoalcsq3" class="animable"></path><path d="M341.88,342.93l.3.38.85,1.12,3.22,4.37,12,16.31-.2-.05c3.78-1.79,8-3.71,12.64-5.42a20.13,20.13,0,0,0,3.48-1.41,29.68,29.68,0,0,0,3.3-2.07c2.17-1.53,4.3-3.25,6.44-5.09s4.29-3.79,6.42-5.86c.53-.52,1.06-1,1.57-1.59a10.5,10.5,0,0,1,1.82-1.46c1.28-.85,2.62-1.62,4-2.4,2.71-1.55,5.53-3.05,8.31-4.71.7-.42,1.39-.85,2.05-1.31a5.34,5.34,0,0,0,1.66-1.65,4.52,4.52,0,0,0-.31-4.5l-.15-.25.25-.12c1.66-.77,3.53-1.39,4.68-2.89a4.24,4.24,0,0,0,1-2.55,5.42,5.42,0,0,0-.69-2.72l.29.12-4.47,1.22-2.4.65,2.23-1.14a2.92,2.92,0,0,0,1.05-.9,4.39,4.39,0,0,0,.56-1.37,8.65,8.65,0,0,0,.07-3.13l.28.21-8.12.82-.81.08.63-.55,0,0a3.68,3.68,0,0,0,1.54-2.66,5.36,5.36,0,0,0-.82-3l.23.11c-4,.18-7.88.46-11.72.88-1.92.21-3.82.47-5.67.83a22.69,22.69,0,0,0-2.73.68l-2.64,1-20.21,7.37-.53.19.24-.52c1.13-2.47,2.18-4.93,3.12-7.37.46-1.22.89-2.44,1.26-3.66a12.47,12.47,0,0,0,.7-3.65,6.9,6.9,0,0,0-1.09-3.38,8,8,0,0,0-2.39-2.54c-.47-.28-1-.55-1.47-.34a1.81,1.81,0,0,0-.83,1.26c-.29,1.09-.43,2.24-.68,3.34-.11.55-.26,1.09-.41,1.63-.09.27-.2.53-.29.8l-.38.74c-.53,1-1.1,1.88-1.69,2.75-1.19,1.74-2.4,3.37-3.58,4.94l-3.37,4.49a18.15,18.15,0,0,0-2.64,4.35c-1.17,3-2,5.84-2.68,8.27s-1.28,4.53-1.74,6.23l-1,3.89c-.12.43-.21.76-.27,1a2.34,2.34,0,0,1-.11.34s0-.12.07-.35.13-.57.23-1c.22-.9.55-2.21,1-3.91s1-3.8,1.66-6.25,1.47-5.26,2.64-8.32a18.4,18.4,0,0,1,2.64-4.42c1.07-1.45,2.19-2.95,3.36-4.52s2.37-3.2,3.54-4.94a14.4,14.4,0,0,0,2.7-5.8c.24-1.09.36-2.21.67-3.36a2.19,2.19,0,0,1,1.06-1.53,1.38,1.38,0,0,1,1,0,3.16,3.16,0,0,1,.85.4,8.21,8.21,0,0,1,2.54,2.67,7.34,7.34,0,0,1,1.16,3.59,12.84,12.84,0,0,1-.71,3.79c-.37,1.23-.8,2.46-1.27,3.69-.93,2.46-2,4.92-3.11,7.41l-.3-.32,20.2-7.4,2.65-1a24.7,24.7,0,0,1,2.79-.69c1.88-.37,3.79-.63,5.71-.84,3.86-.42,7.78-.7,11.76-.89h.15l.07.13a5.79,5.79,0,0,1,.91,3.37,4.26,4.26,0,0,1-1.74,3l0,0-.18-.47,8.12-.81.24,0,0,.24a9.36,9.36,0,0,1-.07,3.34,4.64,4.64,0,0,1-.65,1.54,3.28,3.28,0,0,1-1.26,1.08l-.17-.48,4.46-1.22.19-.05.1.16a5.82,5.82,0,0,1,.76,3,4.76,4.76,0,0,1-1.08,2.85,7.66,7.66,0,0,1-1.07,1.06,10.73,10.73,0,0,1-1.24.78c-.86.47-1.72.8-2.56,1.19l.11-.37a6.14,6.14,0,0,1,.84,2.48,4.12,4.12,0,0,1-.51,2.55,5.76,5.76,0,0,1-1.81,1.8c-.69.48-1.38.91-2.08,1.33-2.81,1.67-5.62,3.16-8.33,4.7-1.36.77-2.69,1.54-3.95,2.38a10.36,10.36,0,0,0-1.74,1.38c-.52.56-1.05,1.08-1.59,1.6-2.14,2.09-4.3,4-6.45,5.88s-4.3,3.56-6.49,5.09a33.83,33.83,0,0,1-3.35,2.09,21.39,21.39,0,0,1-3.54,1.41c-4.66,1.68-8.85,3.58-12.63,5.35l-.12.06-.08-.11-11.86-16.45-3.15-4.4-.8-1.13C342,343.06,341.88,342.93,341.88,342.93Z" style="fill: rgb(255, 154, 108); transform-origin: 378.816px 332.018px;" id="elex53e2ugxip" class="animable"></path><path d="M403.89,315.28a5.82,5.82,0,0,1-1.17.16c-.75.07-1.84.19-3.17.36a77,77,0,0,0-10.31,2.05c-2,.56-3.83,1.17-5.5,1.79s-3.14,1.25-4.34,1.85c-2.43,1.16-3.84,2.06-3.89,2a5.62,5.62,0,0,1,.95-.7c.31-.21.7-.46,1.17-.72s1-.59,1.6-.89a43.88,43.88,0,0,1,4.34-2c1.67-.65,3.54-1.28,5.54-1.84a62.47,62.47,0,0,1,10.4-1.92c1.35-.12,2.44-.18,3.2-.19A4.74,4.74,0,0,1,403.89,315.28Z" style="fill: rgb(255, 154, 108); transform-origin: 389.7px 319.353px;" id="elm1nvd80xy1g" class="animable"></path><path d="M384.14,329.22a4.1,4.1,0,0,1,.82-.68c.54-.41,1.37-1,2.41-1.6a43.36,43.36,0,0,1,8.72-3.9,61.78,61.78,0,0,1,9.29-2.18c1.21-.19,2.19-.32,2.87-.39a3.73,3.73,0,0,1,1.06-.05,4.77,4.77,0,0,1-1,.25l-2.83.55a81.77,81.77,0,0,0-9.2,2.32,50.28,50.28,0,0,0-8.69,3.72C385.43,328.44,384.19,329.29,384.14,329.22Z" style="fill: rgb(255, 154, 108); transform-origin: 396.725px 324.813px;" id="elyftfvmpga4" class="animable"></path><path d="M408.68,326.74c0,.08-1.33.32-3.45.86a49.13,49.13,0,0,0-8.06,2.83,50,50,0,0,0-7.44,4.2c-1.8,1.25-2.86,2.1-2.91,2s.21-.27.67-.68,1.15-1,2-1.66a40.55,40.55,0,0,1,15.62-7.09,25.29,25.29,0,0,1,2.58-.44A3.33,3.33,0,0,1,408.68,326.74Z" style="fill: rgb(255, 154, 108); transform-origin: 397.747px 331.675px;" id="el02siyoqak7cf" class="animable"></path><path d="M272.75,278c-1.05.35-3.93,1-13.06,9.18C252,294,247.1,306.88,244.05,318.59a150.56,150.56,0,0,0-4.71,34.78c-.35,15.93-1,45.53-1,49.13-.07,7.33-.74,35.08,32.58,38.71,23.55,2.56,63-34.08,64.73-40.09s3.66-14.94,3.66-14.94L360.7,367l-19.78-27.2-55.8,33.72L292,329.87" style="fill: rgb(180, 207, 102); transform-origin: 299.514px 359.669px;" id="el5ijzzz7kgzf" class="animable"></path><path d="M292,329.87s0,.26-.1.75-.18,1.24-.33,2.21l-1.31,8.54c-1.16,7.48-2.86,18.38-5,32.14l-.23-.16,55.77-33.78.17-.1.12.16,19.8,27.19.13.17-.16.15-21.41,19.23.08-.14c-1,4.44-2,8.93-3.23,13.45-.16.57-.29,1.13-.5,1.7a8.24,8.24,0,0,1-.89,1.6,31.62,31.62,0,0,1-2.21,2.8c-1.57,1.8-3.24,3.51-5,5.19a158.19,158.19,0,0,1-23,18.37,88.47,88.47,0,0,1-21,10.46,33.44,33.44,0,0,1-11.37,1.75,48.37,48.37,0,0,1-11.14-2.06,34.62,34.62,0,0,1-10-4.88,28.26,28.26,0,0,1-7.51-7.91c-3.95-6.12-5.41-13.32-5.64-20.16-.11-3.44,0-6.82.1-10.16s.14-6.64.21-9.89c.14-6.49.27-12.8.4-18.89s.21-12,.42-17.65a153.45,153.45,0,0,1,1.54-16.22,134.76,134.76,0,0,1,6.87-27.12c2.89-7.71,6.49-14,10.55-18.2,2.08-2.05,4.09-3.66,5.81-5.08a54.48,54.48,0,0,1,4.56-3.34,18.57,18.57,0,0,1,3.05-1.66,8.77,8.77,0,0,1,1.12-.38l-.27.11a8,8,0,0,0-.83.32,19.46,19.46,0,0,0-3,1.7,53.62,53.62,0,0,0-4.52,3.37c-1.71,1.43-3.72,3.06-5.76,5.1-4,4.19-7.57,10.46-10.43,18.16a134.83,134.83,0,0,0-6.78,27.07,155.79,155.79,0,0,0-1.5,16.19c-.2,5.64-.25,11.54-.39,17.63s-.25,12.4-.37,18.9c-.07,3.25-.13,6.54-.2,9.88s-.2,6.73-.09,10.14c.23,6.79,1.69,13.89,5.57,19.91a29.85,29.85,0,0,0,3.31,4.22,29.43,29.43,0,0,0,4.08,3.55,34.07,34.07,0,0,0,9.86,4.8,46.84,46.84,0,0,0,11,2,32.93,32.93,0,0,0,11.2-1.73,87.33,87.33,0,0,0,20.84-10.4,158.36,158.36,0,0,0,22.92-18.3c1.72-1.67,3.39-3.37,4.94-5.15a31.29,31.29,0,0,0,2.17-2.76,7,7,0,0,0,.83-1.48c.2-.52.34-1.11.5-1.66,1.24-4.5,2.27-9,3.23-13.42l0-.08.06-.06,21.41-19.21,0,.32c-6.93-9.53-13.56-18.67-19.76-27.21l.29.06L285.2,373.61l-.28.18.05-.33c2.2-13.75,3.94-24.64,5.14-32.11.61-3.72,1.07-6.59,1.39-8.54l.37-2.19C292,330.12,292,329.87,292,329.87Z" style="fill: rgb(38, 50, 56); transform-origin: 299.507px 359.753px;" id="elkbnctc4dx2e" class="animable"></path><path d="M254.41,298.61a1.85,1.85,0,0,1,.48.16l1.34.55a21.52,21.52,0,0,1,2.09.95c.8.4,1.73.83,2.71,1.4s2.06,1.15,3.17,1.88,2.28,1.53,3.5,2.39a62.3,62.3,0,0,1,13.64,13.74c.85,1.23,1.68,2.38,2.36,3.52s1.33,2.2,1.86,3.19,1,1.91,1.38,2.71a22.33,22.33,0,0,1,.94,2.1c.22.54.4,1,.54,1.34a2.26,2.26,0,0,1,.16.49,1.93,1.93,0,0,1-.26-.44c-.16-.36-.37-.79-.62-1.31s-.59-1.27-1-2-.85-1.71-1.44-2.66-1.17-2-1.9-3.14-1.53-2.26-2.38-3.47a65.93,65.93,0,0,0-13.54-13.63c-1.21-.87-2.33-1.72-3.45-2.41s-2.15-1.37-3.12-1.93-1.87-1-2.66-1.46-1.47-.76-2-1l-1.3-.64C254.55,298.71,254.4,298.63,254.41,298.61Z" style="fill: rgb(38, 50, 56); transform-origin: 271.495px 315.82px;" id="el6vdhasueayy" class="animable"></path><path d="M314.2,355.2a10.6,10.6,0,0,1,.48,1.49c.3,1,.76,2.33,1.46,4a51.24,51.24,0,0,0,7.26,11.92A117,117,0,0,0,333,382.87l3.06,3a8.47,8.47,0,0,1,1.07,1.14,9.55,9.55,0,0,1-1.21-1c-.76-.66-1.85-1.63-3.17-2.86A94.39,94.39,0,0,1,323,372.92a47.17,47.17,0,0,1-7.2-12.1,31.22,31.22,0,0,1-1.31-4.08c-.13-.49-.19-.88-.24-1.14S314.18,355.2,314.2,355.2Z" style="fill: rgb(38, 50, 56); transform-origin: 325.661px 371.105px;" id="el6tiplg67bp4" class="animable"></path><path d="M460.34,403.5c-.06,0-.08-1-.32-2.88a24.35,24.35,0,0,0-2.18-7.51,42,42,0,0,0-6.6-9.58l-4.57-5.2c-.78-.91-1.6-1.82-2.36-2.82s-1.48-2-2.18-3.1c-2.78-4.29-5.11-8.55-7.4-12.32a70.69,70.69,0,0,0-6.65-9.6c-2.17-2.51-4.43-4.12-6.23-4.54a7.38,7.38,0,0,0-2.85-.1,3.89,3.89,0,0,1,.73-.18,5.87,5.87,0,0,1,2.17.08c1.88.38,4.23,2,6.45,4.5a66.23,66.23,0,0,1,6.79,9.59c2.31,3.76,4.66,8,7.42,12.28.7,1.06,1.4,2.1,2.16,3.07s1.56,1.89,2.34,2.8c1.57,1.81,3.12,3.54,4.55,5.23a41.23,41.23,0,0,1,6.56,9.74,23.55,23.55,0,0,1,2.06,7.64,20,20,0,0,1,.12,2.15A5.38,5.38,0,0,1,460.34,403.5Z" style="fill: rgb(38, 50, 56); transform-origin: 439.679px 374.552px;" id="elblwwc9lhdua" class="animable"></path><path d="M423.06,348.57a6.53,6.53,0,0,1-.29,1.45,27,27,0,0,1-1.35,3.8,29,29,0,0,1-19.7,16.56,27.09,27.09,0,0,1-4,.67,7.57,7.57,0,0,1-1.48,0,8.85,8.85,0,0,1,1.45-.24,34.27,34.27,0,0,0,3.9-.83,30.06,30.06,0,0,0,19.47-16.36,32.55,32.55,0,0,0,1.48-3.7A10.39,10.39,0,0,1,423.06,348.57Z" style="fill: rgb(38, 50, 56); transform-origin: 409.65px 359.828px;" id="elkutc2vxd6s" class="animable"></path><path d="M439.84,373.48a1.27,1.27,0,0,1-.06.45,12.64,12.64,0,0,1-.28,1.28,24.92,24.92,0,0,1-1.64,4.49,27,27,0,0,1-25.61,15.54,24.46,24.46,0,0,1-4.75-.62c-.55-.11-1-.26-1.25-.34a1.22,1.22,0,0,1-.43-.16,16,16,0,0,1,1.72.3,27.61,27.61,0,0,0,30-14.88,29.58,29.58,0,0,0,1.78-4.39A15.71,15.71,0,0,1,439.84,373.48Z" style="fill: rgb(38, 50, 56); transform-origin: 422.831px 384.372px;" id="ell1ppu5sowse" class="animable"></path><path d="M411.77,462.15c0,.14-27.76.26-62,.26s-62-.12-62-.26,27.75-.26,62-.26S411.77,462,411.77,462.15Z" style="fill: rgb(38, 50, 56); transform-origin: 349.77px 462.15px;" id="ellfep3xn9atf" class="animable"></path><path d="M259.24,281.49a16.09,16.09,0,0,0,28.62-1.65,17.3,17.3,0,0,0,25.76-19.77c5.46-.13,9-5.89,10.27-11.2a36.28,36.28,0,0,0-10.39-34.13" style="fill: rgb(38, 50, 56); transform-origin: 291.996px 252.099px;" id="elwox7iqib1vk" class="animable"></path><path d="M269.6,389.14a2.57,2.57,0,0,1,.22-.87,17.12,17.12,0,0,1,.93-2.27A24.59,24.59,0,0,1,282,374.71a16.37,16.37,0,0,1,2.26-.95,3.22,3.22,0,0,1,.87-.23c0,.09-1.17.53-3,1.5a27.46,27.46,0,0,0-11.06,11.14C270.11,388,269.68,389.17,269.6,389.14Z" style="fill: rgb(38, 50, 56); transform-origin: 277.365px 381.335px;" id="el4f94h05x3o3" class="animable"></path></g><defs>     <filter id="active" height="200%">         <feMorphology in="SourceAlpha" result="DILATED" operator="dilate" radius="2"></feMorphology>                <feFlood flood-color="#32DFEC" flood-opacity="1" result="PINK"></feFlood>        <feComposite in="PINK" in2="DILATED" operator="in" result="OUTLINE"></feComposite>        <feMerge>            <feMergeNode in="OUTLINE"></feMergeNode>            <feMergeNode in="SourceGraphic"></feMergeNode>        </feMerge>    </filter>    <filter id="hover" height="200%">        <feMorphology in="SourceAlpha" result="DILATED" operator="dilate" radius="2"></feMorphology>                <feFlood flood-color="#ff0000" flood-opacity="0.5" result="PINK"></feFlood>        <feComposite in="PINK" in2="DILATED" operator="in" result="OUTLINE"></feComposite>        <feMerge>            <feMergeNode in="OUTLINE"></feMergeNode>            <feMergeNode in="SourceGraphic"></feMergeNode>        </feMerge>            <feColorMatrix type="matrix" values="0   0   0   0   0                0   1   0   0   0                0   0   0   0   0                0   0   0   1   0 "></feColorMatrix>    </filter></defs></svg>